<svg width="310" height="472" viewBox="0 0 310 472" fill="none" xmlns="http://www.w3.org/2000/svg">
<line x1="197.891" y1="4.07554e-07" x2="197.891" y2="239" stroke="white" stroke-width="16"/>
<line x1="198.137" y1="379" x2="198.137" y2="471" stroke="white" stroke-width="16"/>
<path d="M192.137 470L148.257 378" stroke="white" stroke-width="4"/>
<path d="M84.3809 243.071L59.6372 185.5" stroke="white" stroke-width="4"/>
<line x1="59.9563" y1="189.647" x2="193.716" y2="102.647" stroke="white" stroke-width="8"/>
<path d="M292.344 300.457H257.032L250.528 313.806H239.377L268.648 254.12H280.845L310 313.806H298.849L292.344 300.457ZM289.324 294.083L274.688 263.766L260.053 294.083H289.324Z" fill="white"/>
<path d="M231.476 253.775V260.149H209.406V313.806H198.836V260.149H176.65V253.775H231.476Z" fill="white"/>
<path d="M139.142 314.409C133.798 314.409 128.997 313.72 124.738 312.342C120.556 310.907 117.265 308.955 114.865 306.486C112.464 303.959 111.225 301.059 111.148 297.787H122.415C122.802 300.6 124.351 302.983 127.061 304.935C129.849 306.83 133.876 307.777 139.142 307.777C144.175 307.777 148.124 306.859 150.99 305.021C153.932 303.127 155.403 300.715 155.403 297.787C155.403 295.49 154.552 293.624 152.848 292.188C151.144 290.753 149.015 289.662 146.459 288.915C143.904 288.169 140.458 287.365 136.121 286.504C130.778 285.47 126.48 284.437 123.228 283.403C120.053 282.37 117.304 280.762 114.981 278.58C112.735 276.341 111.612 273.355 111.612 269.623C111.612 266.35 112.735 263.45 114.981 260.924C117.227 258.397 120.363 256.445 124.39 255.067C128.494 253.689 133.179 253 138.445 253C146.033 253 152.229 254.407 157.03 257.22C161.908 260.034 164.657 263.766 165.277 268.417H153.661C153.274 266.12 151.648 264.111 148.783 262.388C145.917 260.608 142.123 259.718 137.399 259.718C132.985 259.718 129.384 260.579 126.597 262.302C123.809 263.967 122.415 266.321 122.415 269.364C122.415 271.546 123.228 273.326 124.854 274.704C126.558 276.082 128.61 277.145 131.011 277.891C133.489 278.58 136.935 279.384 141.348 280.303C146.692 281.394 150.99 282.485 154.242 283.575C157.494 284.609 160.282 286.245 162.605 288.485C164.928 290.667 166.09 293.652 166.09 297.442C166.09 300.37 165.045 303.127 162.954 305.71C160.863 308.294 157.765 310.39 153.661 311.998C149.557 313.605 144.717 314.409 139.142 314.409Z" fill="white"/>
<path d="M95.4555 253.775V313.806H84.8853V253.775H95.4555Z" fill="white"/>
<path d="M73.295 253.775L42.7457 313.806H30.5493L0 253.775H11.2672L36.7056 305.538L62.1439 253.775H73.295Z" fill="white"/>
<path d="M238.206 366C235.186 366 232.359 365.598 229.726 364.794C227.132 363.962 224.848 362.813 222.873 361.349C220.898 359.856 219.349 358.105 218.227 356.095C217.104 354.057 216.542 351.832 216.542 349.42C216.542 347.009 217.104 344.798 218.227 342.788C219.349 340.75 220.898 338.999 222.873 337.535C224.848 336.042 227.132 334.893 229.726 334.089C232.359 333.286 235.186 332.884 238.206 332.884C241.226 332.884 244.033 333.3 246.627 334.133C249.26 334.936 251.564 336.085 253.538 337.578C255.513 339.042 257.062 340.779 258.185 342.788C259.307 344.798 259.869 347.009 259.869 349.42C259.869 351.832 259.307 354.057 258.185 356.095C257.062 358.105 255.513 359.856 253.538 361.349C251.564 362.813 249.26 363.962 246.627 364.794C244.033 365.598 241.226 366 238.206 366ZM238.206 362.77C240.722 362.77 243.007 362.426 245.059 361.737C247.15 361.048 248.95 360.086 250.46 358.851C251.97 357.617 253.132 356.196 253.945 354.588C254.797 352.98 255.223 351.258 255.223 349.42C255.223 347.612 254.797 345.903 253.945 344.296C253.132 342.688 251.97 341.267 250.46 340.032C248.95 338.798 247.15 337.836 245.059 337.147C243.007 336.458 240.722 336.113 238.206 336.113C235.689 336.113 233.385 336.458 231.294 337.147C229.242 337.836 227.461 338.798 225.951 340.032C224.441 341.267 223.26 342.688 222.408 344.296C221.595 345.903 221.189 347.612 221.189 349.42C221.189 351.258 221.595 352.98 222.408 354.588C223.26 356.196 224.441 357.617 225.951 358.851C227.461 360.086 229.262 361.048 231.352 361.737C233.443 362.426 235.728 362.77 238.206 362.77Z" fill="white"/>
<path d="M202.96 365.483V333.401H207.606V365.483H202.96Z" fill="white"/>
<path d="M159.855 365.483V333.401H174.084C178.382 333.401 182.119 334.061 185.293 335.381C188.468 336.673 190.927 338.525 192.669 340.937C194.412 343.32 195.283 346.147 195.283 349.42C195.283 352.665 194.412 355.492 192.669 357.904C190.927 360.316 188.468 362.182 185.293 363.502C182.119 364.823 178.382 365.483 174.084 365.483H159.855ZM164.501 362.253H174.084C177.414 362.253 180.299 361.737 182.738 360.703C185.177 359.641 187.055 358.148 188.372 356.224C189.727 354.301 190.404 352.033 190.404 349.42C190.404 346.808 189.727 344.554 188.372 342.659C187.016 340.736 185.119 339.257 182.68 338.224C180.241 337.161 177.375 336.63 174.084 336.63H164.501V362.253Z" fill="white"/>
<path d="M134.405 366C131.347 366 128.656 365.526 126.332 364.579C124.009 363.632 122.209 362.34 120.931 360.703C119.653 359.038 119.015 357.143 119.015 355.019V333.401H123.661V355.019C123.661 356.569 124.106 357.933 124.997 359.11C125.926 360.258 127.184 361.162 128.772 361.823C130.398 362.454 132.276 362.77 134.405 362.77C136.535 362.77 138.393 362.454 139.981 361.823C141.607 361.162 142.865 360.258 143.756 359.11C144.685 357.933 145.15 356.569 145.15 355.019V333.401H149.796V355.019C149.796 357.143 149.157 359.038 147.88 360.703C146.602 362.34 144.801 363.632 142.478 364.579C140.194 365.526 137.503 366 134.405 366Z" fill="white"/>
<path d="M96.961 365.483V336.63H84.9968V333.401H113.455V336.63H101.607V365.483H96.961Z" fill="white"/>
<path d="M66.4998 366C63.7507 366 61.2534 365.612 59.0077 364.837C56.762 364.062 54.8647 363.029 53.316 361.737C51.7672 360.416 50.6637 358.966 50.0055 357.387L54.1871 356.224C55.1938 358.406 56.762 360.071 58.8915 361.22C61.021 362.339 63.5571 362.899 66.4998 362.899C68.3583 362.899 69.9845 362.684 71.3784 362.253C72.811 361.794 73.9144 361.162 74.6888 360.359C75.4632 359.555 75.8504 358.622 75.8504 357.559C75.8504 355.98 75.2696 354.76 74.108 353.899C72.9465 353.038 71.2816 352.377 69.1133 351.918L61.3308 350.195C58.272 349.535 55.9101 348.43 54.2452 346.879C52.619 345.329 51.8059 343.564 51.8059 341.583C51.8059 339.889 52.3673 338.396 53.4902 337.104C54.613 335.783 56.1424 334.75 58.0784 334.003C60.0531 333.257 62.2794 332.884 64.7574 332.884C67.3516 332.884 69.6747 333.243 71.7268 333.96C73.8177 334.649 75.5794 335.568 77.012 336.716C78.4446 337.865 79.4706 339.142 80.0901 340.549L76.0246 341.755C75.0954 339.86 73.6434 338.425 71.6688 337.448C69.7328 336.472 67.4484 335.984 64.8155 335.984C63.1506 335.984 61.6793 336.2 60.4015 336.63C59.1625 337.061 58.1946 337.678 57.4976 338.482C56.8007 339.286 56.4522 340.233 56.4522 341.324C56.4522 342.645 57.0136 343.836 58.1365 344.899C59.2593 345.932 60.9823 346.707 63.3055 347.224L70.1587 348.731C73.566 349.478 76.1408 350.554 77.8831 351.961C79.6255 353.368 80.4967 355.133 80.4967 357.258C80.4967 358.98 79.8965 360.502 78.6962 361.823C77.5347 363.115 75.8891 364.134 73.7596 364.88C71.6688 365.627 69.2488 366 66.4998 366Z" fill="white"/>
</svg>
